# xmcd CD database file
#
# Track frame offsets:
#	150
#	16805
#	35767
#
# Disc length: 693 seconds
#
# Revision: 0
# Processed by: cddbd v1.5.1PL0 Copyright (c) Steve Scherf et al.
# Submitted via: CDex 1.51
#
DISCID=1b02b303
DTITLE=エスカーゴ - 空想ゲーム
DYEAR=2002
DGENRE=J-POP
TTITLE0=空想ゲーム
TTITLE1=さくら 〜ちりゆく男〜
TTITLE2=きついから帰る (のだ自宅にて)
EXTD=YEAR: 2002/04/24
EXTT0=
EXTT1=
EXTT2=
PLAYORDER=
